<svg width="1007" height="175" viewBox="0 0 1007 175" fill="none" xmlns="http://www.w3.org/2000/svg">
<path d="M0 0.739356H76.2515C92.4625 0.405074 108.531 4.06542 123.237 11.4426C136.331 18.0274 147.374 28.5765 155.028 41.81C162.749 55.6957 166.663 71.6643 166.316 87.859C166.663 104.054 162.749 120.022 155.028 133.908C147.377 147.14 136.337 157.689 123.246 164.275C108.537 171.654 92.4655 175.314 76.2515 174.979H0V0.739356ZM74.4086 135.65C88.2306 135.65 99.327 131.419 107.698 122.956C116.069 114.493 120.25 102.794 120.243 87.859C120.243 72.9242 116.061 61.2253 107.698 52.7622C99.3346 44.2992 88.2382 40.0676 74.4086 40.0676H45.6127V135.65H74.4086ZM319.749 136.895V174.979H190.283V0.739356H316.755V38.8231H235.435V68.1949H307.079V105.034H235.435V136.895H319.749ZM498.514 0.739356V174.979H460.964L389.781 82.134V174.979H345.09V0.739356H382.64L453.823 93.584V0.739356H498.514ZM565.09 39.8187H515.561V0.739356H660.002V39.8187H610.703V174.979H565.086L565.09 39.8187ZM747.541 128.681H722.661V174.979H677.044V0.739356H750.762C763.803 0.410369 776.76 3.08269 788.772 8.57889C798.915 13.2559 807.565 21.0449 813.652 30.9811C819.627 41.2093 822.674 53.116 822.41 65.2079C822.662 76.821 819.824 88.2682 814.234 98.1901C808.543 107.792 800.43 115.435 790.85 120.218L825.636 174.979H776.798L747.541 128.681ZM776.337 65.2079C776.525 61.6792 775.981 58.1497 774.745 54.877C773.51 51.6042 771.614 48.6707 769.196 46.2905C764.435 41.81 757.37 39.5698 748.002 39.5698H722.661V90.5971H748.002C757.37 90.5971 764.435 88.3979 769.196 83.9996C771.618 81.65 773.518 78.7398 774.755 75.4861C775.991 72.2323 776.532 68.7189 776.337 65.2079Z" fill="#0022E4"/>
<path d="M919.929 174.979C914.07 174.981 908.225 174.386 902.484 173.202C891.413 170.91 880.896 166.437 871.535 160.037C857.619 150.542 846.727 137.171 840.178 121.544C837.964 116.252 836.275 110.752 835.133 105.123C832.789 93.488 832.789 81.4943 835.133 69.859C837.401 58.6678 841.827 48.0375 848.158 38.5748C857.551 24.5081 870.779 13.4972 886.239 6.87651C891.475 4.63894 896.917 2.93093 902.487 1.77748C913.997 -0.592495 925.863 -0.592495 937.374 1.77748C948.444 4.06999 958.96 8.54351 968.321 14.9428C982.237 24.4379 993.13 37.8089 999.68 53.4356C1001.89 58.7284 1003.58 64.2296 1004.72 69.859C1007.07 81.4943 1007.07 93.488 1004.72 105.123C1002.46 116.315 998.031 126.945 991.7 136.408C982.306 150.473 969.078 161.483 953.619 168.103C948.383 170.341 942.94 172.049 937.371 173.202C931.631 174.385 925.787 174.981 919.929 174.979ZM919.929 41.8673C908.776 41.8818 898.025 46.0831 889.763 53.6562C881.501 61.2293 876.316 71.6343 875.214 82.853C874.112 94.0716 877.171 105.304 883.799 114.372C890.426 123.439 900.149 129.696 911.082 131.927C922.014 134.158 933.377 132.206 942.966 126.448C952.555 120.69 959.686 111.537 962.977 100.765C966.268 89.9933 965.483 78.3699 960.775 68.1496C956.067 57.9294 947.772 49.8409 937.498 45.4531C931.94 43.0754 925.964 41.8558 919.929 41.8673Z" fill="#0022E4"/>
<path d="M918.961 106.929C929.702 106.929 938.41 98.2244 938.41 87.4869C938.41 76.7493 929.702 68.0448 918.961 68.0448C908.219 68.0448 899.512 76.7493 899.512 87.4869C899.512 98.2244 908.219 106.929 918.961 106.929Z" fill="#27D8FF"/>
</svg>
